<?xml version="1.0" encoding="iso-8859-1"?>
<!-- Uploaded to: SVG Repo, www.svgrepo.com, Generator: SVG Repo Mixer Tools -->
<!DOCTYPE svg PUBLIC "-//W3C//DTD SVG 1.1//EN" "http://www.w3.org/Graphics/SVG/1.1/DTD/svg11.dtd">
<svg fill="#000000" version="1.1" id="Capa_1" xmlns="http://www.w3.org/2000/svg" xmlns:xlink="http://www.w3.org/1999/xlink" 
	 width="800px" height="800px" viewBox="0 0 592.141 592.141"
	 xml:space="preserve">
<g>
	<g>
		<path d="M337.107,371.655c33.359-7.347,63.696-23.498,87.729-46.708c33.431-32.313,54.453-90.616,56.234-155.959
			c1.777-65.297-15.992-125.129-47.534-160.044l-2.687-2.968C429.234,4.189,425.44,0,399.947,0H192.143
			c-25.502,0-29.287,4.198-30.906,5.992l-2.668,2.956c-31.533,34.915-49.291,94.744-47.498,160.047
			c1.793,65.346,22.822,123.646,56.252,155.95c24,23.207,54.327,39.361,87.697,46.711c7.812,1.72,13.935,8.679,13.935,15.842
			v138.184c0,6.75-5.49,12.24-12.24,12.24H188.48c-14.948,0-27.111,12.16-27.111,27.108s12.16,27.111,27.111,27.111h89.652h35.86
			h89.651c14.948,0,27.111-12.163,27.111-27.111s-12.163-27.108-27.111-27.108h-68.231c-6.751,0-12.24-5.49-12.24-12.24V387.497
			C323.172,380.334,329.295,373.375,337.107,371.655z M387.147,285.948c-23.348,22.558-56.552,35.496-91.108,35.496
			c-34.532,0-67.708-12.931-91.022-35.474c-42.901-41.448-53.691-153.817-20.995-218.609c3.409-6.753,15.312-13.137,24.492-13.137
			h175.078c9.183,0,21.086,6.383,24.495,13.137C440.798,132.167,430.036,244.524,387.147,285.948z"/>
		<path d="M409.299,158.496H379.54c0.588,34.293-8.642,68.306-27.322,97.926c-10.496,16.64-36.983,1.3-26.424-15.444
			c15.896-25.205,23.795-53.608,23.18-82.485H182.829c-1.328,46.225,10.376,94.267,34.568,117.645
			c40.193,38.847,117.192,38.847,157.37-0.019C398.952,252.762,410.66,204.735,409.299,158.496z"/>
	</g>
</g>
</svg>